<svg xmlns="http://www.w3.org/2000/svg" data-name="Layer 1" viewBox="0 0 48 60" x="0px" y="0px"><title>13-university</title><path d="M16.13661,42.8401h7.06811c-.388-.295-.73958-.60618-1.176-.91332V25.80212c.43647-.31116.78806-.59,1.176-.885H16.13661c.392.29507.77991.57792,1.16786.88913V41.92678C16.91652,42.23392,16.52858,42.54508,16.13661,42.8401Z"/><path d="M24.54238,42.8401h7.06409c-.388-.295-.76377-.60618-1.20426-.91332V25.80212c.44049-.31116.81627-.59,1.20426-.885H24.54238c.388.29507.74763.57792,1.1396.88913V41.92678C25.29,42.23392,24.93033,42.54508,24.54238,42.8401Z"/><path d="M32.94414,42.8401H40.0123c-.392-.295-.74758-.60618-1.18405-.91332V25.80212c.43647-.31116.79208-.59,1.18405-.885H32.94414c.388.29507.77191.57792,1.1599.88913V41.92678C33.71605,42.23392,33.33213,42.54508,32.94414,42.8401Z"/><path d="M7.73476,42.8401H14.7989c-.38794-.295-.75577-.60618-1.14774-.91332V25.80212c.392-.31116.7598-.59,1.14774-.885H7.73476c.388.29507.75568.57792,1.14367.88913V41.92678C8.49044,42.23392,8.12275,42.54508,7.73476,42.8401Z"/><path d="M7.482,44.05556h32.89a.74482.74482,0,0,1,.74482.74482v.02a.74477.74477,0,0,1-.74477.74477H7.482a.74477.74477,0,0,1-.74477-.74477v-.02007A.74477.74477,0,0,1,7.482,44.05556Z"/><path d="M42.3229,46.4904H5.72029a.81029.81029,0,0,0-.83357.76449v.00029A.79467.79467,0,0,0,5.72029,48H42.3229a.75545.75545,0,0,0,.79038-.74482v-.00029A.77121.77121,0,0,0,42.3229,46.4904Z"/><path d="M7.763,24.13716h32.322a1.20745,1.20745,0,0,0,1.20028-1.20838,1.2162,1.2162,0,0,0-.46885-.96179L24.67574,8.97836a1.145,1.145,0,0,0-.13336-.07422v-3.91h5.59817V0H23.30206V8.9039a1.15351,1.15351,0,0,0-.13374.07446l-16.161,13.0088a1.2098,1.2098,0,0,0,.75567,2.15Z"/><text x="0" y="63" fill="#000000" font-size="5px" font-weight="bold" font-family="'Helvetica Neue', Helvetica, Arial-Unicode, Arial, Sans-serif"></text><text x="0" y="68" fill="#000000" font-size="5px" font-weight="bold" font-family="'Helvetica Neue', Helvetica, Arial-Unicode, Arial, Sans-serif"></text></svg>